<svg width="32" height="32" viewBox="0 0 32 32" fill="none" xmlns="http://www.w3.org/2000/svg">
<g clip-path="url(#clip0_737_8680)">
<path fill-rule="evenodd" clip-rule="evenodd" d="M0 0.0158712V1.39993e-06L16.0134 0C24.8405 0.00721856 31.9946 7.16251 32 15.99C32 15.9933 32 15.9966 32 16C32 16.0034 32 16.0067 32 16.0099C31.996 22.4981 28.1304 28.0827 22.577 30.5901C9.50773 26.569 0.00698336 14.4024 0 0.0158712Z" fill="#4B79F6" fill-opacity="0.7"/>
<path d="M16 32C7.16347 32 3.86258e-07 24.8365 0 16C-3.86261e-07 7.16347 7.16347 3.86258e-07 16 0C24.8365 -3.86261e-07 32 7.16347 32 16C32 24.8365 24.8365 32 16 32Z" fill="#4B79F6" fill-opacity="0.4"/>
</g>
<defs>
<clipPath id="clip0_737_8680">
<rect width="32" height="32" fill="white"/>
</clipPath>
</defs>
</svg>
